<?xml version="1.0" encoding="utf-8"?>
<!-- Generator: Adobe Illustrator 22.1.0, SVG Export Plug-In . SVG Version: 6.00 Build 0)  -->
<svg version="1.1" id="Layer_1" xmlns="http://www.w3.org/2000/svg" xmlns:xlink="http://www.w3.org/1999/xlink" x="0px" y="0px"
	 viewBox="0 0 26 26" style="enable-background:new 0 0 26 26;" xml:space="preserve">
<style type="text/css">
	.st0{opacity:0.80;enable-background:new    ;}
	.st1{opacity:0.55;}
	.st2{opacity:0.55;enable-background:new    ;}
	.st3{fill:none;}
</style>
<title>Artboard 1</title>
<rect class="st0" width="26" height="26"/>
<g class="st1">
	<g class="st1">
		<rect x="11" width="1" height="1"/>
		<rect x="11" y="4" width="1" height="1"/>
		<rect x="11" y="18" width="1" height="1"/>
		<rect x="11" y="22" width="1" height="1"/>
		<rect x="22" y="11" width="1" height="1"/>
		<rect x="18" y="11" width="1" height="1"/>
		<rect x="4" y="11" width="1" height="1"/>
		<rect y="11" width="1" height="1"/>
	</g>
	<polygon class="st2" points="15,11 12,11 12,8 11,8 11,11 8,11 8,12 11,12 11,15 12,15 12,12 15,12 	"/>
</g>
<rect class="st3" width="26" height="26"/>
</svg>
