<svg xmlns="http://www.w3.org/2000/svg" width="154" height="60" viewBox="0 0 154 60">
    <g fill="none" fill-rule="nonzero">
        <path fill="#242424" d="M60.624 54.664c.004-.631.127-1.256.364-1.844a4.996 4.996 0 0 1 1.054-1.654 5.355 5.355 0 0 1 1.688-1.177 5.412 5.412 0 0 1 2.261-.452 5.244 5.244 0 0 1 2.615.615c.701.38 1.275.947 1.653 1.632l-1.91 1.278a2.183 2.183 0 0 0-.46-.676 2.554 2.554 0 0 0-1.274-.67 3.673 3.673 0 0 0-.681-.058c-.43-.01-.855.085-1.236.276-.34.176-.64.419-.876.713a2.92 2.92 0 0 0-.51.99 3.849 3.849 0 0 0-.168 1.122c0 .4.066.798.197 1.177.124.365.315.706.564 1.005.245.287.549.523.892.692.363.174.764.261 1.169.255.23-.001.46-.029.684-.083.237-.053.465-.136.679-.246a2.43 2.43 0 0 0 .595-.436c.189-.191.337-.416.437-.661l2.02 1.15a3.025 3.025 0 0 1-.714 1.017c-.323.305-.693.56-1.096.756a6.122 6.122 0 0 1-2.666.615 4.955 4.955 0 0 1-2.134-.458 5.373 5.373 0 0 1-1.672-1.23 5.484 5.484 0 0 1-1.086-1.715 5.188 5.188 0 0 1-.389-1.933zM75.594 60a4.957 4.957 0 0 1-2.133-.452 5.272 5.272 0 0 1-1.642-1.185 5.378 5.378 0 0 1-1.439-3.625 5.044 5.044 0 0 1 .394-1.961 5.239 5.239 0 0 1 4.864-3.242 4.954 4.954 0 0 1 2.13.452 5.206 5.206 0 0 1 1.645 1.19c.453.494.809 1.065 1.05 1.686.243.611.369 1.262.37 1.918 0 .673-.133 1.339-.391 1.962a5.321 5.321 0 0 1-1.089 1.663 5.364 5.364 0 0 1-1.657 1.158 5.085 5.085 0 0 1-2.102.436zm-2.74-5.219c0 .393.06.783.178 1.157.113.36.291.697.526.995a2.552 2.552 0 0 0 2.048.96c.422.01.84-.084 1.214-.275.338-.182.631-.433.86-.737.23-.301.402-.64.51-1a3.95 3.95 0 0 0 .172-1.143c0-.392-.06-.782-.179-1.157a2.907 2.907 0 0 0-.534-.998 2.546 2.546 0 0 0-2.043-.939 2.519 2.519 0 0 0-1.204.27 2.685 2.685 0 0 0-.86.703 3.018 3.018 0 0 0-.522 1.01c-.111.37-.167.753-.166 1.139v.015zM84.608 54.015V60h-2.382V49.535h1.86l4.805 6.146v-6.146h2.394V60h-1.918zM99.663 52.63a1.405 1.405 0 0 0-.311-.216 6.643 6.643 0 0 0-1.53-.638 3.571 3.571 0 0 0-.932-.129c-.864 0-1.293.284-1.293.852a.666.666 0 0 0 .137.434c.114.129.255.233.413.305.22.105.449.19.684.253l.957.26c.46.12.91.267 1.352.44.372.14.717.34 1.023.592.279.235.5.53.646.86.163.387.242.803.23 1.222.015.508-.099 1.011-.332 1.465-.21.387-.509.72-.874.97-.378.251-.799.432-1.243.535-.476.11-.965.166-1.454.165-.395 0-.788-.029-1.178-.085a8.97 8.97 0 0 1-2.288-.65 6.336 6.336 0 0 1-.991-.535l1.056-2.067c.118.103.246.194.383.272.255.156.524.292.802.406a8.04 8.04 0 0 0 1.069.36 4.51 4.51 0 0 0 1.19.162c.852 0 1.28-.256 1.28-.766a.641.641 0 0 0-.192-.48 1.812 1.812 0 0 0-.528-.338 5.838 5.838 0 0 0-.802-.281l-1.007-.29a8.8 8.8 0 0 1-1.243-.47 3.273 3.273 0 0 1-.874-.587 2.113 2.113 0 0 1-.516-.763 2.811 2.811 0 0 1-.168-1.013c-.009-.495.098-.984.311-1.432a3.09 3.09 0 0 1 .84-1.047c.368-.292.79-.51 1.243-.644.479-.146.978-.22 1.479-.217.36 0 .72.034 1.072.104a7.957 7.957 0 0 1 1.921.62c.28.134.538.271.77.405l-1.102 1.966zM106.968 57.86c.357.011.71-.077 1.02-.256.275-.169.506-.402.674-.681.179-.298.303-.626.367-.969.073-.368.11-.744.11-1.12v-5.3h2.354v5.3a7.28 7.28 0 0 1-.276 2.024 4.61 4.61 0 0 1-.82 1.635 3.836 3.836 0 0 1-1.404 1.104 4.787 4.787 0 0 1-2.034.401 4.68 4.68 0 0 1-2.085-.426 3.844 3.844 0 0 1-1.399-1.129 4.73 4.73 0 0 1-.789-1.644 7.418 7.418 0 0 1-.251-1.958v-5.306h2.354v5.3c0 .383.038.765.116 1.14.068.341.194.667.373.963.166.276.395.507.668.673.311.177.665.264 1.022.25zM113.584 60V49.535h2.473v8.345h5.192V60zM127.52 51.658h-3.024V60h-2.299v-8.342h-3.039v-2.123h8.362zM128.914 60V49.535h2.09V60zM136.176 54.015V60h-2.384V49.535h1.859l4.815 6.146v-6.146h2.385V60h-1.918zM151.999 58.909a3.942 3.942 0 0 1-2.746 1.09 4.894 4.894 0 0 1-3.534-1.469 5.146 5.146 0 0 1-1.077-1.681 5.67 5.67 0 0 1-.397-2.152 5.095 5.095 0 0 1 .397-2.007 5.016 5.016 0 0 1 1.092-1.639 5.228 5.228 0 0 1 3.723-1.515 5.14 5.14 0 0 1 2.542.615c.699.375 1.267.95 1.632 1.65l-1.815 1.316a2.549 2.549 0 0 0-1.021-1.085 2.831 2.831 0 0 0-1.446-.387 2.477 2.477 0 0 0-1.095.24c-.326.161-.614.39-.844.67a3.114 3.114 0 0 0-.543.999c-.13.397-.195.812-.19 1.23-.003.418.066.834.205 1.229.126.36.32.693.571.98a2.605 2.605 0 0 0 1.998.883c.941 0 1.789-.433 2.541-1.298v-.307h-2.026v-1.73H154v5.397h-1.998l-.003-1.03z"/>
        <path fill="#A00405" d="M6.814 13.49v30.463H0V.698h5.353l24.704 31.194V.756h6.875v43.197h-5.658zM61.292 43.952a19.22 19.22 0 0 1-8.505-1.862 21.241 21.241 0 0 1-6.602-4.944 22.294 22.294 0 0 1-4.266-7.054 22.726 22.726 0 0 1-1.503-8.118 22.043 22.043 0 0 1 1.595-8.303 23.053 23.053 0 0 1 4.39-7.02 20.998 20.998 0 0 1 6.633-4.852A19.484 19.484 0 0 1 61.412 0a18.72 18.72 0 0 1 8.505 1.924 21.36 21.36 0 0 1 6.568 5.036 23.062 23.062 0 0 1 4.239 7.054 22.506 22.506 0 0 1-.062 16.329 21.98 21.98 0 0 1-4.387 6.986 21.617 21.617 0 0 1-6.663 4.822 19.348 19.348 0 0 1-8.32 1.8zM47.41 21.977a18.18 18.18 0 0 0 .987 5.934 16 16 0 0 0 2.795 5.064 13.581 13.581 0 0 0 4.39 3.512 12.535 12.535 0 0 0 5.769 1.312 12.15 12.15 0 0 0 5.86-1.374 13.782 13.782 0 0 0 4.32-3.63 16.337 16.337 0 0 0 2.702-5.068c.612-1.852.925-3.789.926-5.738a18.098 18.098 0 0 0-.984-5.953 15.794 15.794 0 0 0-2.792-5.006 13.985 13.985 0 0 0-4.362-3.49 13.133 13.133 0 0 0-11.572.062 13.979 13.979 0 0 0-4.359 3.57 16.018 16.018 0 0 0-2.733 5.036 18 18 0 0 0-.94 5.769h-.007zM85.71 43.953V.698h6.807v37.225h23.157v6.03zM119.158 43.953V.698h6.969v43.255zM130.581 36.362c.97.614 2.021 1.095 3.123 1.43 1.524.491 3.121.728 4.724.702 1.894 0 3.408-.335 4.542-1.005a6.457 6.457 0 0 0 2.595-2.986 15.65 15.65 0 0 0 1.173-4.941c.187-1.97.28-4.257.28-6.858V.698h6.981v22.006a74.78 74.78 0 0 1-.497 8.993c-.329 2.704-1.028 5.01-2.098 6.92a11 11 0 0 1-4.697 4.45c-2.07 1.058-4.829 1.586-8.279 1.584-3.706 0-6.877-.893-9.514-2.68l1.667-5.609z"/>
    </g>
</svg>
