<svg xmlns="http://www.w3.org/2000/svg" width="17" height="21" viewBox="0 0 416 512">
    <g fill="none" fill-rule="nonzero">
        <path fill="#03A9F3" d="M415.515 0H.485v512L208 381.446 415.515 512z"/>
        <path fill="#FFF" d="M340.692 162.487c-.882-2.716-3.758-5.228-8.513-5.515l-84.734-5.664-31.571-78.837c-1.742-4.433-5.021-6.392-7.876-6.392-2.855 0-6.134 1.959-7.876 6.392l-31.571 78.837-84.734 5.664c-4.755.287-7.631 2.799-8.513 5.515-.882 2.715-.032 6.439 3.645 9.465l65.222 54.387-20.797 82.336c-1.197 4.61.305 8.124 2.613 9.801 2.309 1.677 6.114 2.018 10.129-.544L208 272.712l71.88 45.222c4.015 2.562 7.819 2.221 10.129.544 2.31-1.678 3.81-5.192 2.613-9.801l-20.797-82.336 65.221-54.387c3.679-3.028 4.529-6.753 3.646-9.467z"/>
    </g>
</svg>
