<svg xmlns="http://www.w3.org/2000/svg" width="16" height="16" viewBox="0 0 16 16">
    <path fill="#FF9495" fill-rule="nonzero" d="M8 10.8a2.8 2.8 0 1 1 0-5.6 2.8 2.8 0 0 1 0 5.6zm5.944-2.024C13.976 8.52 14 8.264 14 8a6.84 6.84 0 0 0-.056-.8l1.688-1.304a.404.404 0 0 0 .096-.512l-1.6-2.768c-.096-.176-.312-.248-.488-.176l-1.992.8a5.799 5.799 0 0 0-1.352-.784L10 .336A.404.404 0 0 0 9.6 0H6.4c-.2 0-.368.144-.4.336l-.296 2.12c-.504.2-.936.472-1.352.784l-1.992-.8a.393.393 0 0 0-.488.176l-1.6 2.768a.394.394 0 0 0 .096.512L2.056 7.2A6.84 6.84 0 0 0 2 8c0 .264.024.52.056.776L.368 10.104a.394.394 0 0 0-.096.512l1.6 2.768c.096.176.312.24.488.176l1.992-.808c.416.32.848.592 1.352.792L6 15.664c.032.192.2.336.4.336h3.2c.2 0 .368-.144.4-.336l.296-2.12a5.825 5.825 0 0 0 1.352-.792l1.992.808c.176.064.392 0 .488-.176l1.6-2.768a.404.404 0 0 0-.096-.512l-1.688-1.328z"/>
</svg>
